<svg width="15" height="13" viewBox="0 0 15 13" fill="none" xmlns="http://www.w3.org/2000/svg">
<path d="M0.666656 4.34409C0.66667 3.60223 0.891719 2.87781 1.31208 2.26653C1.73244 1.65526 2.32833 1.18586 3.02106 0.920358C3.71379 0.654852 4.47076 0.605722 5.192 0.779455C5.91323 0.953188 6.56481 1.34161 7.06066 1.89343C7.09558 1.93077 7.1378 1.96054 7.18471 1.98089C7.23161 2.00125 7.28219 2.01175 7.33332 2.01175C7.38445 2.01175 7.43504 2.00125 7.48194 1.98089C7.52884 1.96054 7.57107 1.93077 7.60599 1.89343C8.10028 1.33803 8.752 0.946337 9.47441 0.770493C10.1968 0.594649 10.9557 0.64299 11.6499 0.909081C12.3442 1.17517 12.9409 1.64639 13.3607 2.26003C13.7806 2.87366 14.0035 3.6006 14 4.34409C14 5.87076 13 7.01076 12 8.01076L8.33866 11.5528C8.21444 11.6954 8.06128 11.81 7.88935 11.889C7.71743 11.9679 7.53068 12.0093 7.34152 12.0105C7.15235 12.0117 6.96509 11.9727 6.79218 11.8959C6.61927 11.8192 6.46468 11.7065 6.33866 11.5654L2.66666 8.01076C1.66666 7.01076 0.666656 5.87743 0.666656 4.34409Z" stroke="#323232" stroke-width="1.33333" stroke-linecap="round" stroke-linejoin="round"/>
</svg>
